<svg xmlns="http://www.w3.org/2000/svg" viewBox="0 0 732.57 217.64"><title>Logo Bali Made Tour | www.balimadetour.com</title><path d="M13,50.62H33.52q12.4,0,19.07,2.94a23.28,23.28,0,0,1,10.52,9A24.7,24.7,0,0,1,67,76.13a24.38,24.38,0,0,1-3.38,12.65,25,25,0,0,1-10,9.25q8.13,2.77,12.51,6.49a26,26,0,0,1,6.82,9A27,27,0,0,1,75.41,125a28.1,28.1,0,0,1-9.18,21.23q-9.18,8.69-24.63,8.68H13Zm10.2,10.21V94.21h6q10.86,0,16-2a17.3,17.3,0,0,0,8.1-6.38,16.75,16.75,0,0,0,3-9.68q0-7.16-5-11.23T35.25,60.83Zm0,43.87v40H36.1q11.43,0,16.75-2.24a18.92,18.92,0,0,0,8.55-7,18.22,18.22,0,0,0-1.31-22.39A23.35,23.35,0,0,0,47.61,106q-5.32-1.27-18.54-1.27Z" transform="translate(-12.97)" style="fill:#fff"></path><path d="M138.62,50.62l48.62,104.25H176l-16.4-34.3H114.68l-16.24,34.3H86.82L136.07,50.62Zm-1.31,22.15-17.87,37.74h35.65Z" transform="translate(-12.97)" style="fill:#fff"></path><path d="M203.4,50.62h10.42v94.19h40.11v10.06H203.4Z" transform="translate(-12.97)" style="fill:#fff"></path><path d="M269,50.62h10.41V154.87H269Z" transform="translate(-12.97)" style="fill:#fff"></path><path d="M505.38,175.68h7.55v11.09h4.48v6.5h-4.48v23.6h-7.55v-23.6h-3.87v-6.5h3.87Z" transform="translate(-12.97)" style="fill:#fff"></path><path d="M535.59,186a15.92,15.92,0,0,1,8,2.13,15.61,15.61,0,0,1,7.95,13.66,15.82,15.82,0,0,1-2.11,8,15.21,15.21,0,0,1-5.77,5.79,15.82,15.82,0,0,1-8,2.09,15,15,0,0,1-11.05-4.6,15.85,15.85,0,0,1,11-27Zm.12,7.11a7.75,7.75,0,0,0-5.86,2.45,8.69,8.69,0,0,0-2.34,6.26,8.85,8.85,0,0,0,2.31,6.36,8.27,8.27,0,0,0,11.76,0,9.69,9.69,0,0,0,0-12.62A7.83,7.83,0,0,0,535.71,193.11Z" transform="translate(-12.97)" style="fill:#fff"></path><path d="M557.69,186.77h7.63v14.5a20.07,20.07,0,0,0,.58,5.88,5.15,5.15,0,0,0,1.87,2.55,5.36,5.36,0,0,0,3.18.92,5.53,5.53,0,0,0,3.2-.9,5.31,5.31,0,0,0,2-2.64,20.48,20.48,0,0,0,.47-5.56V186.77h7.55v12.76q0,7.88-1.25,10.78a11.75,11.75,0,0,1-4.48,5.44,13.73,13.73,0,0,1-7.52,1.89,13.39,13.39,0,0,1-8-2.21,11.69,11.69,0,0,1-4.3-6.17q-.89-2.73-.88-10Z" transform="translate(-12.97)" style="fill:#fff"></path><path d="M589.94,186.77h6.47v3.79a8.14,8.14,0,0,1,2.79-3.4A6.76,6.76,0,0,1,603,186a7.13,7.13,0,0,1,3.07.77l-2.35,6.5a5.26,5.26,0,0,0-2.19-.66q-1.74,0-2.94,2.16t-1.21,8.46l0,1.47v12.17h-7.49Z" transform="translate(-12.97)" style="fill:#fff"></path><path d="M613.94,209a4.19,4.19,0,0,1,3.07,1.26,4.34,4.34,0,1,1-6.14,0A4.2,4.2,0,0,1,613.94,209Z" transform="translate(-12.97)" style="fill:#fff"></path><path d="M655.13,192.86l-6.29,3.46a9.25,9.25,0,0,0-7.56-3.29,9.46,9.46,0,0,0-6.85,2.52,8.61,8.61,0,0,0-2.62,6.48,8.32,8.32,0,0,0,2.52,6.27,9.14,9.14,0,0,0,6.62,2.43,9.6,9.6,0,0,0,7.89-3.46l5.95,4.08q-4.83,6.28-13.66,6.29-7.93,0-12.43-4.7a15.64,15.64,0,0,1,3.79-24.84,18.22,18.22,0,0,1,8.75-2.1,17.74,17.74,0,0,1,8,1.78A15.23,15.23,0,0,1,655.13,192.86Z" transform="translate(-12.97)" style="fill:#fff"></path><path d="M676.06,186a16,16,0,0,1,8,2.13A15.61,15.61,0,0,1,692,201.79a15.82,15.82,0,0,1-2.11,8,15.21,15.21,0,0,1-5.77,5.79,15.85,15.85,0,0,1-8,2.09A15,15,0,0,1,665,213a15.95,15.95,0,0,1,.6-22.95A15.14,15.14,0,0,1,676.06,186Zm.13,7.11a7.74,7.74,0,0,0-5.86,2.45,8.69,8.69,0,0,0-2.34,6.26,8.85,8.85,0,0,0,2.31,6.36,8.27,8.27,0,0,0,11.76,0,8.78,8.78,0,0,0,2.36-6.33,8.69,8.69,0,0,0-2.32-6.29A7.79,7.79,0,0,0,676.19,193.11Z" transform="translate(-12.97)" style="fill:#fff"></path><path d="M698.14,186.77h7.55v3.46a12.82,12.82,0,0,1,4.3-3.18,12.59,12.59,0,0,1,5.16-1.05,9.63,9.63,0,0,1,5.1,1.38,10.05,10.05,0,0,1,3.65,4,12.29,12.29,0,0,1,4.41-4A12.09,12.09,0,0,1,734,186a10.66,10.66,0,0,1,5.65,1.49,8.69,8.69,0,0,1,3.5,3.9q1.07,2.42,1.06,7.83v17.65h-7.6V201.6c0-3.41-.43-5.72-1.27-6.93a4.36,4.36,0,0,0-3.82-1.81,5.77,5.77,0,0,0-3.47,1.11,6.47,6.47,0,0,0-2.29,3.05,19.27,19.27,0,0,0-.74,6.27v13.58h-7.61V202.29a20.87,20.87,0,0,0-.59-5.85,5.34,5.34,0,0,0-1.79-2.7,4.72,4.72,0,0,0-2.89-.88,5.67,5.67,0,0,0-3.42,1.12,6.66,6.66,0,0,0-2.3,3.14,19.35,19.35,0,0,0-.76,6.36v13.39h-7.55Z" transform="translate(-12.97)" style="fill:#fff"></path><rect x="280.59" width="169.52" height="170.16" style="fill:#62a744"></rect><path d="M331.15,24.73h22.28l27.83,83.76,28.09-83.76h22.26l20.15,120.09H429.65L416.78,69l-25.52,75.84H371.12L345.83,69l-13.18,75.84H310.36Z" transform="translate(-12.97)" style="fill:#fff"></path><path d="M553.87,79.7v74.8h-9.49V141.64a41.05,41.05,0,0,1-13.57,11.07,38,38,0,0,1-43.59-7.8,38.64,38.64,0,0,1-11.24-28,37.89,37.89,0,0,1,11.34-27.63,37,37,0,0,1,27.3-11.49,35.34,35.34,0,0,1,16.67,3.92,37.91,37.91,0,0,1,13.09,11.76V79.7Zm-38.46,7.36a29,29,0,0,0-25.65,15,30.29,30.29,0,0,0,0,30.21,29.47,29.47,0,0,0,10.89,11.23,28.4,28.4,0,0,0,14.66,4,30,30,0,0,0,15-4,27.85,27.85,0,0,0,10.88-10.78A30.78,30.78,0,0,0,545,117.48q0-13-8.55-21.7A28.28,28.28,0,0,0,515.41,87.06Z" transform="translate(-12.97)" style="fill:#62a744"></path><path d="M650.19,50.83V154.5H640.7V141.64a41.08,41.08,0,0,1-13.58,11.07,37.94,37.94,0,0,1-43.58-7.8,38.6,38.6,0,0,1-11.24-28,37.89,37.89,0,0,1,11.34-27.63,37,37,0,0,1,27.29-11.49,35.31,35.31,0,0,1,16.67,3.92,37.94,37.94,0,0,1,13.1,11.76V50.83ZM611.72,87.06a29,29,0,0,0-25.64,15,30.29,30.29,0,0,0,0,30.21A29.52,29.52,0,0,0,597,143.54a28.46,28.46,0,0,0,14.67,4,30,30,0,0,0,15-4,27.85,27.85,0,0,0,10.88-10.78,30.78,30.78,0,0,0,3.81-15.31q0-13-8.55-21.7A28.3,28.3,0,0,0,611.72,87.06Z" transform="translate(-12.97)" style="fill:#62a744"></path><path d="M735,129.68l8.11,4.26a44.31,44.31,0,0,1-9.22,12.65,36.57,36.57,0,0,1-11.77,7.32,40.89,40.89,0,0,1-14.79,2.51q-18.31,0-28.63-12a40.49,40.49,0,0,1-10.32-27.13,40,40,0,0,1,8.74-25.36q11.07-14.16,29.65-14.17,19.14,0,30.56,14.51,8.12,10.25,8.25,25.58h-67.3q.27,13,8.33,21.36a26.53,26.53,0,0,0,19.89,8.33,32.11,32.11,0,0,0,11.12-2,28.94,28.94,0,0,0,9.18-5.28Q730.56,137,735,129.68Zm0-20.14a31.9,31.9,0,0,0-5.62-12.31,26.54,26.54,0,0,0-9.73-7.42A29.86,29.86,0,0,0,706.87,87a27.44,27.44,0,0,0-18.93,7.08q-5.78,5.16-8.74,15.47Z" transform="translate(-12.97)" style="fill:#62a744"></path></svg>